#!OML:ASF I:\Actors\actors\Patient Classification 1\Patient 1\Session 1\Subject1.ASF
:FULLY-SPECIFIED
:DEGREES
1175
root -0.860458 17.479 8.45786 15.6037 -3.08921 -12.7903
lowerback 8.94767 1.50917 6.10823
upperback -6.35345 2.87889 -0.36487
thorax -11.6344 0.863749 -4.36777
lowerneck -17.7857 2.70656 4.00035
upperneck 31.6534 1.17027 4.29863
head 13.7454 1.59083 1.21923
rclavicle -8.34896e-015 -2.06736e-014
rhumerus -30.3417 45.7692 -114.013
rradius 68.0322
rwrist -29.3615
rhand 9.43376 -56.3075
rfingers 7.12502
rthumb 34.5891 1717.04
lclavicle -8.34896e-015 -2.06736e-014
lhumerus -28.3973 -4.85008 90.9054
lradius 66.0106
lwrist 56.7892
lhand -28.5203 2.00489
lfingers 7.12502
lthumb -1.88846 31.9763
rfemur -12.9188 17.1832 32.0631
rtibia 0.959331
rfoot -8.2415 -13.8732
rtoes -1.36007
lfemur -4.94142 -55.9758 6.86622
ltibia -3.6982
lfoot -64.7956 58.3175
ltoes 31.0995
1176
root -0.859875 17.4715 8.44328 15.3662 -3.37167 -12.8893
lowerback 9.10732 1.52454 6.0444
upperback -6.26575 2.91211 -0.233569
thorax -11.6362 0.892816 -4.19945
lowerneck -17.483 2.79697 4.18723
upperneck 31.022 1.38795 3.98652
head 13.4106 1.65066 1.07672
rclavicle -5.76476e-015 3.18055e-015
rhumerus -31.0629 47.5978 -114.205
rradius 67.2088
rwrist -30.7264
rhand 10.0315 -56.7738
rfingers 7.12502
rthumb 35.1562 1716.71
lclavicle -5.76476e-015 3.18055e-015
lhumerus -29.2321 -5.50744 91.0131
lradius 67.1353
lwrist 55.257
lhand -27.9399 2.85685
lfingers 7.12502
lthumb -1.32784 32.8325
rfemur -12.6992 17.1696 32.2213
rtibia 1.01429
rfoot -8.26403 -13.5995
rtoes -1.15677
lfemur -4.28807 -55.8558 6.41278
ltibia -3.72331
lfoot -64.8437 58.2017
ltoes 31.2068
1177
root -0.859147 17.4668 8.42695 15.3351 -3.60029 -13.049
lowerback 9.69486 1.64431 6.37057
upperback -6.56877 3.16385 -0.385223
thorax -12.2946 0.941238 -4.63469
lowerneck -17.3121 2.70459 4.18621
upperneck 31.0067 1.18561 4.23081
head 13.3684 1.59527 1.13646
rclavicle -4.77083e-015 -1.43125e-014
rhumerus -32.6339 47.7755 -114.965
rradius 68.6419
rwrist -31.0751
rhand 11.7799 -56.8701
rfingers 7.12502
rthumb 36.8125 1717.02
lclavicle -4.77083e-015 -1.43125e-014
lhumerus -31.1577 -6.87795 91.3069
lradius 71.6184
lwrist 56.2789
lhand -28.0936 3.13849
lfingers 7.12502
lthumb -1.47636 33.1131
rfemur -12.7211 17.3319 32.363
rtibia 1.05996
rfoot -8.27932 -13.443
rtoes -0.338963
lfemur -4.04181 -55.8289 6.41979
ltibia -3.78061
lfoot -65.3755 58.0244
ltoes 31.694
1178
root -0.857477 17.4672 8.4134 15.5398 -3.88341 -13.1851
lowerback 9.78055 1.77683 6.5169
upperback -6.75135 3.37285 -0.459218
thorax -12.5224 1.00912 -4.849
lowerneck -17.0256 2.69187 4.30571
upperneck 30.874 1.16945 4.18526
head 13.2532 1.59162 1.08675
rclavicle 1.23246e-014 7.95139e-015
rhumerus -33.2517 46.8947 -114.733
rradius 71.8181
rwrist -31.0815
rhand 11.1941 -55.1628
rfingers 7.12502
rthumb 36.258 1718.58
lclavicle 1.23246e-014 7.95139e-015
lhumerus -32.6909 -7.89502 91.6773
lradius 76.8315
lwrist 57.4256
lhand -27.2401 -0.000153338
lfingers 7.12502
lthumb -0.652029 29.9786
rfemur -13.0016 17.406 32.4272
rtibia 1.10106
rfoot -8.10831 -13.0665
rtoes -0.123862
lfemur -4.1405 -55.8626 6.6929
ltibia -3.86585
lfoot -66.1604 58.037
ltoes 32.0111
1179
root -0.857688 17.4736 8.40037 15.8405 -4.17365 -13.2417
lowerback 9.61237 1.91079 6.53555
upperback -6.86653 3.54173 -0.528681
thorax -12.5251 1.08183 -4.96217
lowerneck -16.7942 2.70935 4.50125
upperneck 30.9275 1.23067 3.93491
head 13.23 1.60664 0.962249
rclavicle -3.97569e-015 3.18055e-015
rhumerus -32.9042 45.7022 -113.724
rradius 75.6868
rwrist -30.6869
rhand 16.0476 -56.5154
rfingers 7.12502
rthumb 40.8368 1718.52
lclavicle -3.97569e-015 3.18055e-015
lhumerus -33.6809 -8.78486 92.0703
lradius 82.3134
lwrist 58.2111
lhand -24.7964 0.922175
lfingers 7.12502
lthumb 1.70822 30.8951
rfemur -13.4011 17.4727 32.385
rtibia 1.16213
rfoot -7.84915 -12.6697
rtoes 0.0568158
lfemur -4.55415 -55.7696 7.06871
ltibia -3.78426
lfoot -66.9283 57.7837
ltoes 32.5164
1180
root -0.863655 17.4852 8.38267 16.1179 -4.21728 -13.1822
lowerback 9.29095 1.93812 6.4208
upperback -6.8346 3.53248 -0.550584
thorax -12.2945 1.09913 -4.89942
lowerneck -16.7423 2.76562 4.70911
upperneck 31.0695 1.37748 3.53774
head 13.2836 1.64329 0.797143
rclavicle 2.18663e-015 -2.38542e-014
rhumerus -32.1208 45.2561 -112.619
rradius 79.6755
rwrist -30.0424
rhand 12.7893 -55.3964
rfingers 7.12502
rthumb 37.7669 1718.74
lclavicle 2.18663e-015 -2.38542e-014
lhumerus -34.0294 -9.44932 92.5049
lradius 87.4514
lwrist 58.803
lhand -23.5619 1.93966
lfingers 7.12502
lthumb 2.90043 31.8997
rfemur -13.78 17.8978 32.1794
rtibia 1.16449
rfoot -7.70154 -12.911
rtoes 1.1343
lfemur -5.4237 -54.9914 7.69405
ltibia -3.67033
lfoot -65.7207 57.6651
ltoes 32.3024
1181
root -0.871398 17.4961 8.36487 16.3232 -4.18523 -13.1006
lowerback 8.66863 1.88229 6.11053
upperback -6.53856 3.36816 -0.397838
thorax -11.6148 1.09422 -4.48146
lowerneck -16.8216 2.94253 4.85574
upperneck 31.0785 1.78083 2.94091
head 13.3108 1.75485 0.604874
rclavicle -6.16232e-015 -9.54166e-015
rhumerus -30.84 45.8033 -111.278
rradius 83.5478
rwrist -28.5321
rhand 19.4736 -55.9959
rfingers 7.12502
rthumb 44.0444 1720.14
lclavicle -6.16232e-015 -9.54166e-015
lhumerus -33.7594 -9.68387 92.9743
lradius 91.9577
lwrist 59.0814
lhand -22.3877 1.52823
lfingers 7.12502
lthumb 4.03437 31.4698
rfemur -14.0482 18.4331 31.9651
rtibia 1.0923
rfoot -7.56467 -13.3939
rtoes 1.97501
lfemur -6.19501 -53.9876 8.24153
ltibia -3.66669
lfoot -63.5748 57.8658
ltoes 31.4046
1182
root -0.875382 17.5022 8.34793 16.3731 -4.21767 -13.0251
lowerback 8.67128 1.87467 6.07219
upperback -6.54892 3.35139 -0.41379
thorax -11.631 1.08756 -4.47502
lowerneck -16.6987 3.10789 5.17507
upperneck 31.564 2.09014 2.4322
head 13.5053 1.86583 0.408087
rclavicle 2.52457e-014 -9.54166e-015
rhumerus -30.0674 45.8388 -110.514
rradius 87.3376
rwrist -27.9603
rhand 10.7416 -52.5416
rfingers 7.12502
rthumb 35.8294 1721.1
lclavicle 2.52457e-014 -9.54166e-015
lhumerus -34.0437 -10.0596 93.2714
lradius 95.4101
lwrist 59.9812
lhand -20.3892 1.75124
lfingers 7.12502
lthumb 5.96409 31.6473
rfemur -14.1378 18.7825 31.8156
rtibia 0.987799
rfoot -7.34812 -13.6994
rtoes 1.74461
lfemur -6.55685 -53.1202 8.40874
ltibia -3.63192
lfoot -61.8223 57.837
ltoes 30.8319
1183
root -0.875597 17.5054 8.33011 16.2708 -4.2049 -12.9389
lowerback 8.82167 1.79461 6.04629
upperback -6.52848 3.25334 -0.375427
thorax -11.7145 1.04092 -4.40925
lowerneck -16.4472 3.29307 5.41057
upperneck 31.8541 2.45107 1.98811
head 13.5909 1.99388 0.252243
rclavicle 2.5842e-015 2.22639e-014
rhumerus -29.4453 45.8837 -109.867
rradius 90.8425
rwrist -28.5979
rhand 13.8393 -53.9675
rfingers 7.12502
rthumb 38.758 1720.44
lclavicle 2.5842e-015 2.22639e-014
lhumerus -34.4766 -10.2733 93.5425
lradius 97.9317
lwrist 60.963
lhand -21.0584 3.09551
lfingers 7.12502
lthumb 5.31797 33.0088
rfemur -14.0867 19.0031 31.6906
rtibia 0.903727
rfoot -7.19762 -13.9842
rtoes 1.20483
lfemur -6.70413 -52.3459 8.35307
ltibia -3.53829
lfoot -60.1204 57.6396
ltoes 30.4737
1184
root -0.870441 17.503 8.31089 16.2249 -4.2968 -12.9318
lowerback 9.22106 1.76955 6.25294
upperback -6.72795 3.28081 -0.439529
thorax -12.174 1.00745 -4.62934
lowerneck -16.1582 3.3826 5.48785
upperneck 32.1919 2.59128 1.94421
head 13.6797 2.063 0.245112
rclavicle 2.48481e-014 -1.59028e-015
rhumerus -29.425 45.3539 -109.655
rradius 93.8698
rwrist -28.7947
rhand 15.466 -54.4736
rfingers 7.12502
rthumb 40.2901 1720.39
lclavicle 2.48481e-014 -1.59028e-015
lhumerus -35.5602 -10.7004 93.8696
lradius 99.1685
lwrist 61.3619
lhand -23.5042 5.09578
lfingers 7.12502
lthumb 2.95615 35.055
rfemur -14.17 18.9098 31.6573
rtibia 1.00183
rfoot -7.16361 -13.8316
rtoes 1.17186
lfemur -6.78293 -51.8776 8.32214
ltibia -3.4502
lfoot -59.3248 57.4745
ltoes 30.4432
1185
root -0.858909 17.484 8.30956 16.4982 -4.97981 -13.1759
lowerback 8.46504 1.91708 6.3062
upperback -6.52396 3.43715 -0.291653
thorax -11.4639 1.12399 -4.47484
lowerneck -16.181 3.61018 5.55213
upperneck 32.1097 2.97882 1.721
head 13.661 2.20593 0.208463
rclavicle -2.5842e-015 6.04305e-014
rhumerus -29.072 45.6477 -109.199
rradius 95.4609
rwrist -29.9033
rhand 14.4928 -54.2361
rfingers 7.12502
rthumb 39.374 1720.35
lclavicle -2.5842e-015 6.04305e-014
lhumerus -35.9847 -10.5318 94.1508
lradius 98.8099
lwrist 61.1111
lhand -23.5154 4.82493
lfingers 7.12502
lthumb 2.94537 34.7843
rfemur -14.5589 18.2958 31.9507
rtibia 1.32448
rfoot -7.05377 -12.4516
rtoes 0.887609
lfemur -6.32858 -52.3166 8.195
ltibia -3.57352
lfoot -61.879 57.3977
ltoes 31.5454
